<svg width="36" height="36" viewBox="0 0 36 36" fill="none" xmlns="http://www.w3.org/2000/svg">
<rect x="0.25" y="0.25" width="35.5" height="35.5" rx="9.75" stroke="#7E0013" stroke-width="0.5"/>
<path d="M17.0887 10C21.0017 10 24.1774 13.1757 24.1774 17.0887C24.1774 21.0017 21.0017 24.1774 17.0887 24.1774C13.1757 24.1774 10 21.0017 10 17.0887C10 13.1757 13.1757 10 17.0887 10ZM17.0887 22.6021C20.1345 22.6021 22.6021 20.1345 22.6021 17.0887C22.6021 14.0421 20.1345 11.5753 17.0887 11.5753C14.0421 11.5753 11.5753 14.0421 11.5753 17.0887C11.5753 20.1345 14.0421 22.6021 17.0887 22.6021ZM23.7718 22.6581L26 24.8855L24.8855 26L22.6581 23.7718L23.7718 22.6581Z" fill="#7E0013"/>
</svg>
